# xmcd
#
# Track frame offsets:
#	150
#	20047
#	42650
#	64690
#	86700
#	108530
#	128392
#	142555
#	164377
#	172867
#
# Disc length: 2546 seconds
#
# Revision: 1
# Processed by: cddbd v1.5.1PL0 Copyright (c) Steve Scherf et al.
# Submitted via: CDex 1.50Beta5
#
DISCID=7b09f00a
DTITLE=中野理絵 - ボーダーレス
DYEAR=1990
DGENRE=Pop
TTITLE0=TEL
TTITLE1=おっさえきれない
TTITLE2=わかんなかったの!?
TTITLE3=天使のカウントダウン
TTITLE4=女学生の友
TTITLE5=宇宙は2人のために
TTITLE6=Baby&Lover
TTITLE7=Sorry
TTITLE8=おやすみ
TTITLE9=もっと もっと もっと
EXTD=
EXTT0=
EXTT1=
EXTT2=
EXTT3=
EXTT4=
EXTT5=
EXTT6=
EXTT7=
EXTT8=
EXTT9=
PLAYORDER=
